<svg xmlns="http://www.w3.org/2000/svg" width="254" height="294" fill="none" viewBox="0 0 254 294">
    <path fill="#E4EBF7" fill-rule="evenodd" d="M0 127.273v-2.101C0 56.042 56.387 0 125.943 0h2.114C197.613 0 254 56.042 254 125.172v2.102c0 69.131-56.387 125.173-125.943 125.173h-2.114C56.387 252.448 0 196.405 0 127.274" clip-rule="evenodd"/>
    <path fill="#fff" fill-rule="evenodd" d="M40.107 130.79c-.101 1.091-.42 2.151-.935 3.119-.516.968-1.22 1.825-2.07 2.521-.851.697-1.832 1.219-2.887 1.537-1.055.317-2.162.424-3.259.315-1.096-.11-2.16-.435-3.13-.955-.97-.521-1.826-1.227-2.52-2.078-.694-.851-1.211-1.831-1.522-2.882-.311-1.05-.41-2.152-.29-3.241.238-2.176 1.332-4.171 3.044-5.549 1.711-1.378 3.901-2.028 6.093-1.808 2.191.219 4.207 1.291 5.607 2.981 1.4 1.689 2.072 3.861 1.87 6.04z" clip-rule="evenodd"/>
    <path stroke="#fff" stroke-width="2" d="M48.8 146.501l-12.759 10.816m1.261-23.06l10.575 5.959-10.575-5.959z"/>
    <path fill="#fff" fill-rule="evenodd" d="M40.228 159.379c-.152 1.499-.897 2.878-2.071 3.831-1.175.953-2.682 1.404-4.19 1.253-1.51-.151-2.896-.891-3.855-2.058-.96-1.168-1.413-2.666-1.26-4.165.074-.742.296-1.463.651-2.12.356-.657.838-1.239 1.42-1.711.58-.472 1.25-.826 1.969-1.041.719-.215 1.473-.287 2.22-.212.747.075 1.472.295 2.134.648.661.353 1.246.833 1.721 1.411.475.577.83 1.243 1.047 1.957.216.715.29 1.465.214 2.207zm17.87-16.148c-.07.753-.29 1.484-.645 2.152-.355.668-.84 1.259-1.427 1.74-.587.481-1.264.841-1.992 1.06-.727.22-1.492.294-2.248.218-.757-.076-1.49-.3-2.16-.659-.669-.359-1.26-.847-1.738-1.434-.479-.588-.835-1.263-1.05-1.989-.214-.725-.282-1.485-.199-2.236.166-1.5.92-2.875 2.1-3.825 1.181-.949 2.691-1.397 4.202-1.246 1.51.151 2.9.89 3.866 2.055.966 1.164 1.43 2.661 1.29 4.164zM99.894 26.547l30.084-.014c.608 0 1.21-.12 1.771-.35.562-.232 1.072-.571 1.501-.998.43-.427.771-.935 1.003-1.493.232-.558.352-1.156.352-1.76-.001-.604-.12-1.202-.353-1.76-.233-.558-.574-1.065-1.004-1.492-.43-.427-.94-.766-1.502-.997-.561-.23-1.163-.35-1.771-.35l-30.084.014c-.608 0-1.21.119-1.771.35-.562.232-1.072.57-1.501.998-.43.427-.77.934-1.003 1.493-.233.558-.352 1.156-.352 1.76 0 .604.12 1.203.353 1.76.233.559.574 1.066 1.004 1.493.43.427.94.765 1.502.997.561.23 1.163.35 1.771.35zm11.507 18.385l30.084-.013c1.216-.018 2.375-.511 3.228-1.372.853-.861 1.331-2.021 1.33-3.23 0-1.208-.479-2.367-1.333-3.228-.853-.86-2.013-1.352-3.229-1.37l-30.084.014c-.608 0-1.209.12-1.771.35-.561.232-1.071.571-1.501.998-.429.428-.77.935-1.002 1.493-.233.558-.352 1.156-.352 1.76 0 .604.12 1.203.353 1.76.233.559.574 1.066 1.004 1.492.43.427.94.766 1.502.997.562.23 1.163.35 1.771.35z" clip-rule="evenodd"/>
    <path fill="#fff" fill-rule="evenodd" d="M113.796 26.533v-.002l15.924-.006c-.614-.009-1.223.104-1.792.33-.57.228-1.088.566-1.525.994-.437.428-.784.938-1.021 1.501-.236.563-.358 1.166-.358 1.776 0 .61.123 1.214.36 1.776.237.563.584 1.073 1.021 1.5.437.428.956.766 1.525.993.57.226 1.179.339 1.793.33l-15.923.006v-.002c1.227 0 2.404-.485 3.271-1.348.867-.862 1.354-2.032 1.354-3.252-.001-1.22-.489-2.389-1.357-3.25-.868-.863-2.045-1.347-3.272-1.346zm72.36 109.098c-.558 5.5-5.496 9.509-11.028 8.954-5.534-.554-9.567-5.462-9.009-10.961.557-5.5 5.495-9.508 11.029-8.954 5.533.555 9.567 5.462 9.009 10.961" clip-rule="evenodd"/>
    <path stroke="#fff" stroke-width="2" d="M194.714 156.496l-15.39 13.046m1.523-27.813l12.751 7.187-12.751-7.187z"/>
    <path fill="#fff" fill-rule="evenodd" d="M186.302 170.113c-.081.903-.341 1.781-.766 2.584-.425.803-1.006 1.513-1.709 2.091-.703.578-1.515 1.011-2.388 1.275s-1.79.353-2.698.262c-.907-.091-1.788-.36-2.59-.792-.803-.432-1.511-1.018-2.084-1.723-.573-.706-.999-1.518-1.254-2.389-.255-.87-.334-1.783-.231-2.684.203-1.792 1.109-3.432 2.522-4.565 1.412-1.132 3.216-1.666 5.022-1.485 1.805.181 3.466 1.062 4.622 2.452 1.156 1.39 1.715 3.177 1.554 4.974zm18.837-16.777c-.084.907-.349 1.789-.778 2.595-.429.805-1.014 1.518-1.722 2.098-.708.579-1.524 1.013-2.402 1.278-.877.264-1.799.353-2.711.261-.913-.091-1.798-.361-2.605-.794-.806-.434-1.519-1.021-2.096-1.729-.577-.709-1.007-1.523-1.266-2.398-.259-.874-.341-1.791-.241-2.697.199-1.81 1.11-3.469 2.533-4.615 1.424-1.146 3.246-1.687 5.069-1.504 1.823.183 3.499 1.074 4.664 2.48 1.165 1.405 1.724 3.212 1.555 5.025z" clip-rule="evenodd"/>
    <path fill-rule="evenodd" stroke="#fff" stroke-width="2" d="M153.275 192.439c0 .591-.236 1.158-.656 1.576-.421.417-.991.652-1.585.652-.595 0-1.165-.235-1.585-.652-.421-.418-.657-.985-.657-1.576 0-.591.236-1.157.657-1.575.42-.418.99-.653 1.585-.653.594 0 1.164.235 1.585.653.42.418.656.984.656 1.575v0zm73.988-76.472c0 .591-.236 1.158-.656 1.576-.421.417-.991.652-1.586.652-.595 0-1.165-.235-1.585-.652-.421-.418-.657-.985-.657-1.576 0-.591.236-1.158.657-1.576.42-.417.99-.652 1.585-.652.594 0 1.164.235 1.585.652.42.418.656.985.656 1.576h.001zm-8.968 35.118c0 .292-.059.582-.171.853-.113.27-.278.516-.487.723-.208.207-.455.371-.727.483-.272.112-.564.169-.859.169-.294 0-.586-.058-.858-.17-.272-.112-.519-.276-.727-.483-.208-.207-.374-.453-.486-.723-.113-.271-.171-.561-.171-.853 0-.592.237-1.158.657-1.576.421-.419.991-.653 1.586-.653.595 0 1.165.234 1.586.653.42.418.657.984.657 1.576v.001zm-39.813-43.561c.007.297-.047.592-.156.868-.11.275-.274.527-.483.739-.209.212-.458.38-.734.495-.275.115-.57.174-.869.174-.298 0-.594-.059-.869-.174-.275-.115-.524-.283-.733-.495-.209-.212-.373-.464-.483-.739-.11-.276-.163-.571-.157-.868.013-.583.254-1.137.673-1.545.419-.408.983-.636 1.569-.636.587 0 1.15.228 1.569.636.419.408.661.962.673 1.545zm18.537-15.512c.006.296-.047.591-.157.867s-.274.527-.483.74c-.208.211-.458.38-.733.495-.275.115-.571.174-.869.174-.299 0-.594-.06-.869-.174-.276-.115-.525-.284-.734-.496-.209-.212-.373-.463-.482-.739-.11-.276-.164-.57-.157-.867.012-.583.254-1.138.673-1.546.419-.407.982-.636 1.569-.636.586 0 1.15.228 1.569.636.419.408.661.963.673 1.546v0zm6.827 88.783c0 .591-.236 1.158-.657 1.576-.421.418-.991.653-1.586.653-.595 0-1.165-.235-1.586-.653-.42-.418-.656-.985-.656-1.576 0-.591.236-1.158.656-1.576.421-.418.991-.653 1.586-.653.595 0 1.165.235 1.586.653.421.418.657.985.657 1.576v0z" clip-rule="evenodd"/>
    <path stroke="#fff" stroke-width="2" d="M222.778 117.164l-12.953 7.922-15.446-7.923v-22.92m21.923 59.07l-1.929 20.238-11.025 6.006 12.954-26.244zm-41.104 21.547l-6.412 9.84h-11.461l-4.548 6.502 22.421-16.342zm1.291-49.757v-15.846 15.846z"/>
    <path fill="#fff" fill-rule="evenodd" d="M168.062 65.713h-3.986c-1.268-.004-2.483-.506-3.379-1.397-.897-.89-1.402-2.098-1.406-3.358.003-1.26.509-2.468 1.405-3.36.897-.89 2.112-1.392 3.38-1.396h3.986c1.268.004 2.483.506 3.38 1.397.896.891 1.401 2.099 1.405 3.359-.004 1.26-.509 2.467-1.406 3.358-.896.891-2.111 1.393-3.379 1.397z" clip-rule="evenodd"/>
    <path fill="#0082FD" fill-rule="evenodd" d="M176.37 29.71c0-16.325 13.315-29.56 29.741-29.56 16.424 0 29.741 13.235 29.741 29.56 0 16.323-13.317 29.559-29.741 29.559-16.426 0-29.741-13.236-29.741-29.56z" clip-rule="evenodd"/>
    <path fill="#fff" fill-rule="evenodd" d="M204.447 38.09c-.505.501-.792 1.145-.792 1.933s.288 1.47.792 1.97c.577.5 1.224.751 2.017.751.792 0 1.442-.285 1.946-.787.577-.501.828-1.146.828-1.934s-.251-1.432-.828-1.933c-.504-.501-1.154-.752-1.947-.752-.792 0-1.475.25-2.016.752zm-4.323-19.515c-1.441 1.252-2.162 2.97-2.162 5.156 0 1.716.43 3.138 1.229 4.261.068.096.139.18.22.266.42.43 1.423 1.35 2.983 2.706.606.47 1.099 1.07 1.44 1.755.364.734.55 1.544.541 2.363v.501h4.143v-.501c0-1.36-.217-2.543-.72-3.51-.468-.966-1.873-2.47-4.215-4.548l-.434-.5c-.649-.788-.972-1.648-.972-2.543 0-1.183.361-2.113 1.008-2.792.684-.682 1.658-1.004 2.884-1.004 1.549 0 2.665.465 3.386 1.434.374.501.627 1.138.767 1.91.087.46.334.875.697 1.174.363.298.82.46 1.292.46h.004c1.288 0 2.277-1.187 1.997-2.437-.34-1.522-1.029-2.787-2.091-3.794-1.55-1.504-3.639-2.256-6.305-2.256-2.341 0-4.252.608-5.692 1.899z" clip-rule="evenodd"/>
    <path fill="#FFB594" fill-rule="evenodd" d="M52.5 75.935S74.503 81.31 80.05 91.923c5.624 10.769-6.408 9.285-15.87 4.948C53.225 91.85 39.262 85.017 52.5 75.935z" clip-rule="evenodd"/>
    <path fill="#FFC6A0" fill-rule="evenodd" d="M91.284 67.285l-.453 2.9c-.76.492-4.79-2.67-4.79-2.67l-1.66.75-1.358-5.699s6.876-4.601 8.996-5.031c2.474-.503 9.972.942 10.795 2.284 0 0 1.332.487-2.247.692-3.58.203-5.087.448-6.85 3.14-1.762 2.693-2.433 3.634-2.433 3.634z" clip-rule="evenodd"/>
    <path fill="#fff" fill-rule="evenodd" d="M129.188 111.266c-2.65-7.745-6.204-13.216-8.996-15.52-3.531-2.914-9.423-2.23-11.466-4.198-1.282-1.234-3.244-1.2-3.244-1.2S90.37 87.18 88.505 86.859c-2.39-.41-2.143-.716-6.107-1.408-1.584-1.913-2.943-1.125-2.943-1.125l-7.173-1.387c-.86-1.476-2.445-1.026-2.445-1.026l-2.49-.9c-1.659 10.003-7.808 13.834-7.808 13.834 1.81 1.125 15.842 8.322 15.842 8.322l5.152 37.209s-3.35 5.71 1.358 9.134c0 0 20.059-3.753 35.23-.33 0 0 3.074-2.553.981-8.83.527-3.018 1.406-8.285 1.751-11.653.389.774 2.037 1.923 3.168 3.486 0 0 9.49-7.384 11.15-14.049-.84-.725-1.612-1.589-2.287-2.46-.572-.738-.362-2.061-.772-2.724-.675-1.087-1.82-1.382-1.924-1.686z" clip-rule="evenodd"/>
    <path fill="#CBD1D1" fill-rule="evenodd" d="M101.984 290.375s4.333 2.046 7.419 1.023c2.846-.942 4.57.67 7.143 1.182 2.573.511 6.935 1.103 11.789-1.264-.103-5.524-6.949-3.99-12.065-6.731-2.586-1.383-3.818-4.734-3.63-8.822h-9.485s-1.405 10.548-1.171 14.612z" clip-rule="evenodd"/>
    <path fill="#2B0849" fill-rule="evenodd" d="M101.961 290.203s2.449 1.274 6.819.654c3.085-.438 3.745.483 7.488 1.034 3.745.552 10.819-.069 11.928-.896.417 1.103-.346 2.068-.346 2.068s-1.525.605-4.855.827c-2.048.136-5.851.291-7.674-.505-1.803-1.379-5.293-1.908-5.779-.241-3.952.952-7.42-.287-7.42-.287l-.161-2.654z" clip-rule="evenodd"/>
    <path fill="#A4AABA" fill-rule="evenodd" d="M109.299 276.384h3.122s-.104 6.72 4.576 8.581c-4.681.619-8.634-2.309-7.698-8.581z" clip-rule="evenodd"/>
    <path fill="#CBD1D1" fill-rule="evenodd" d="M58.05 272.731s-2.125 7.436-4.524 12.339c-1.814 3.705-4.262 7.512 5.513 7.512 6.707 0 9.033-.481 7.49-6.617-1.544-6.136.267-13.234.267-13.234h-8.745z" clip-rule="evenodd"/>
    <path fill="#2B0849" fill-rule="evenodd" d="M51.932 290.169s2.115 1.172 6.691 1.172c6.137 0 8.322-1.654 8.322-1.654s.608 1.117-.624 2.171c-1.002.857-3.63 1.595-7.456 1.55-4.181-.048-5.883-.568-6.795-1.171-.833-.552-.693-1.584-.138-2.068z" clip-rule="evenodd"/>
    <path fill="#A4AABA" fill-rule="evenodd" d="M58.936 274.639s.033 1.523-.317 2.938c-.352 1.424-1.087 3.112-1.14 4.15-.058 1.154 4.577 1.584 5.2.034.626-1.551 1.306-6.444 1.93-7.272.625-.827-4.946-2.124-5.673.151" clip-rule="evenodd"/>
    <path fill="#7BB2F9" fill-rule="evenodd" d="M100.542 278.86l13.496.092s1.31-54.666 1.87-64.575c.559-9.909 3.809-43.48 1.011-63.297l-12.659-.646-23.05.782s-.439 3.977-1.206 10.003c-.064.497-.688.845-.756 1.369-.076.586.427 1.357.323 1.971-2.385 14.118-6.433 33.193-8.822 46.802-.117.668-1.244 1.012-1.47 2.698-.04.303.213 1.529.113 1.8-6.934 18.794-11.046 47.97-14.404 62.051l14.737-.014s2.216-8.593 4.065-17.016c2.836-12.92 23.316-85.238 23.316-85.238l3.042-.522 1.053 46.474s-.226 1.238.34 2.026c.565.787-.565 1.126-.396 2.25l.396 1.798s-.453 7.198-.906 11.922c-.452 4.723-.093 39.27-.093 39.27z" clip-rule="evenodd"/>
    <path stroke="#648BD8" stroke-linecap="round" stroke-linejoin="round" stroke-width="1.051" d="M107.301 225.345s2.798-1.113 6.157-3.893m-36.7.368c1.163.094 4.074-2.025 7.016-4.948l-7.016 4.948z"/>
    <path stroke="#648BD8" stroke-linecap="round" stroke-linejoin="round" d="M108.225 222.295s2.797-1.113 6.156-3.895"/>
    <path stroke="#648BD8" stroke-linecap="round" stroke-linejoin="round" stroke-width="1.051" d="M56.616 274.753h13.428m5.357-49.784s2.645-.593 6.563-3.374l-6.563 3.374zm11.39-73.329c-.272 3.114.303 8.548-4.374 9.147l4.374-9.147zm17.751-1.759s.111 14.05-1.305 15.106c-2.238 1.668-3.016 1.949-3.016 1.949l4.321-17.055zm-3.869.56s.035 12.914-1.207 24.442l1.207-24.442zm-6.172 25.541s7.276-1.668 9.515-1.668l-9.515 1.668zm-19.534 30.03c-.312 1.528-.641 3.052-.987 4.573 0 0-1.471 1.836-1.018 3.786.453 1.949-.956 2.05-5.03 15.396-1.71 5.605-4.53 18.641-6.404 27.671l-.233 1.123 13.672-52.549zm1.391-8.075c-.284 1.591-.58 3.18-.89 4.766l.89-4.766zm6.963-45.696l-1.206 10.495s-1.107.15-.505 2.25c.114 1.349-2.697 15.817-5.225 30.511l6.936-43.256z"/>
    <path fill="#192064" fill-rule="evenodd" d="M117.269 148.217s-17.198-3.112-36.21.201c.16 2.521-.003 4.161-.003 4.161s14.817-2.826 35.985-.313c.255-2.361.228-4.049.228-4.049z" clip-rule="evenodd"/>
    <path fill="#fff" fill-rule="evenodd" d="M107.263 151.17l.003-4.924c.001-.211-.08-.414-.226-.567-.147-.152-.347-.242-.559-.25-2.462-.092-5.111-.109-7.906-.014-.213.007-.415.096-.563.249-.149.152-.232.356-.233.568l-.003 4.919c0 .109.022.216.064.317.042.1.104.191.182.267.078.076.171.135.273.175.102.04.21.059.32.056 2.406-.06 5.017-.064 7.798.017.11.004.219-.015.322-.054.103-.039.196-.098.275-.174.08-.075.143-.166.186-.266.043-.101.066-.209.067-.318" clip-rule="evenodd"/>
    <path fill="#192064" fill-rule="evenodd" d="M106.138 150.235l.002-3.084c.001-.167-.064-.329-.18-.45-.117-.12-.276-.191-.445-.197-1.972-.065-3.945-.068-5.918-.011-.17.006-.33.076-.45.197-.118.121-.184.283-.185.452v3.08c0 .086.016.171.05.251.032.079.081.151.143.211.061.06.134.107.214.139.08.032.166.047.253.045 1.948-.042 3.897-.039 5.845.011.365.01.671-.281.671-.644z" clip-rule="evenodd"/>
    <path stroke="#648BD8" stroke-linecap="round" stroke-linejoin="round" stroke-width="1.051" d="M101.88 175.034l.906 44.761s.679 1.575-.227 2.7c-.905 1.125 2.49.674.906 2.249-1.584 1.574.905 1.125 0 3.374-.602 1.493-1.003 21.156-1.106 35.24m-1.209 12.395h12.448-12.448zm1.184-4.898c.006 3.396.042 5.805.112 6.523l-.112-6.523zm.015-5.998c-.009 1.449-.014 2.899-.015 4.348l.015-4.348z"/>
    <path fill="#FFC6A0" fill-rule="evenodd" d="M47.29 83.25s-.52 6.062 7.287 5.567c11.3-.713 9.3-9.37 31.82-21.713-.794-2.715-2.47-4.756-2.47-4.756s-11.165 3.118-22.783 8.067c-6.826 2.908-13.514 6.37-13.854 12.835zm58.094 7.651l.949-5.386-8.962-11.461-5.082 5.386-1.755 7.855c-.014.059-.01.12.008.176.02.057.054.107.1.145.974.802 6.558 5.027 14.475 3.554.066-.013.127-.046.175-.094.047-.048.079-.109.091-.175" clip-rule="evenodd"/>
    <path fill="#FFC6A0" fill-rule="evenodd" d="M94.773 79.2s-4.573-2.861-2.453-6.874c1.637-3.098 4.552 1.136 4.552 1.136s.525-3.652 3.149-3.652c.525-1.042 1.575-4.173 1.575-4.173s11.546 2.608 13.646 3.13c0 5.217-2.325 19.476-7.91 19.914-8.97.705-12.559-9.482-12.559-9.482z" clip-rule="evenodd"/>
    <path fill="#520038" fill-rule="evenodd" d="M114.882 73.243c2.624-2.087 3.501-9.748 3.501-9.748s-2.501-.492-6.699-2.056c-4.725-2.087-12.911-4.76-17.635.979-9.753 3.231-2.068 19.876-2.068 19.876l2.737-3.03s-3.97-3.295-2.098-6.259c2.189-3.471 3.954 1.076 3.954 1.076s.643-2.394 3.613-3.351c.358-.712 1.045-2.681 1.445-3.86.085-.255.263-.468.499-.599.236-.13.512-.169.775-.107 2.421.56 8.754 2.024 11.456 2.669.527.125.879.617.828 1.153l-.308 3.257z" clip-rule="evenodd"/>
    <path fill="#552950" fill-rule="evenodd" d="M105.906 75.868c-.104.611-.587 1.04-1.079.958-.494-.083-.809-.646-.705-1.257.104-.612.588-1.041 1.08-.959.492.082.807.646.704 1.258zm7.218 1.634c-.104.612-.587 1.04-1.079.959-.492-.084-.807-.646-.704-1.258.104-.612.587-1.04 1.079-.958.492.082.807.644.704 1.257z" clip-rule="evenodd"/>
    <path stroke="#DB836E" stroke-linecap="round" stroke-linejoin="round" stroke-width="1.118" d="M111.105 74.64l-.904 1.615-.301 4.369h-2.248"/>
    <path stroke="#5C2552" stroke-linecap="round" stroke-linejoin="round" stroke-width="1.118" d="M111.827 74.28s1.806-.718 2.528.539"/>
    <path stroke="#DB836E" stroke-linecap="round" stroke-linejoin="round" stroke-width="1.118" d="M93.203 74.08s.481-1.116 1.123-.717c.643.4 1.285 1.437.563 1.995-.723.558.16 1.675.16 1.675"/>
    <path stroke="#5C2552" stroke-linecap="round" stroke-linejoin="round" stroke-width="1.118" d="M104.201 72.725s1.846 1.116 4.174.957"/>
    <path stroke="#DB836E" stroke-linecap="round" stroke-linejoin="round" stroke-width="1.118" d="M95.531 81.022s2.329 7.42 10.516 7.66m-1.444-7.101s2.247 1.196 4.415 1.196l-4.415-1.196zm.963 2.553s.963.399 1.525.319l-1.525-.32z"/>
    <path stroke="#E4EBF7" stroke-linecap="round" stroke-linejoin="round" stroke-width="1.101" d="M69.61 82.476s-.732 9.306-8.276 14.244m20.837-7.496s.454 5.662-4.979 12.821l4.979-12.821z"/>
    <path stroke="#E4EBF7" stroke-linecap="round" stroke-linejoin="round" stroke-width="1.051" d="M130.55 122.794s-5.318 7.423-9.505 10.797"/>
    <path stroke="#E4EBF7" stroke-linecap="round" stroke-linejoin="round" stroke-width="1.101" d="M120.362 107.216s.456 4.378-2.146 32.148"/>
    <path fill="#F2D7AD" fill-rule="evenodd" d="M151.356 151.237h-50.278c-.271 0-.53-.106-.721-.296-.191-.19-.298-.448-.298-.716v-31.773c0-.559.456-1.013 1.019-1.013h50.278c.562 0 1.018.454 1.018 1.013v31.773c0 .268-.107.526-.298.716-.191.19-.45.296-.72.296z" clip-rule="evenodd"/>
    <path fill="#F4D19D" fill-rule="evenodd" d="M151.62 151.237h-20.039V117.44h20.968v32.874c0 .244-.098.479-.272.652-.174.173-.41.27-.656.27" clip-rule="evenodd"/>
    <path fill="#F2D7AD" fill-rule="evenodd" d="M124.648 127.839H93.74c-.096 0-.19-.026-.272-.075-.082-.05-.149-.12-.193-.205-.044-.084-.064-.179-.058-.274.006-.095.039-.187.094-.264l6.436-9.138c.195-.278.515-.443.858-.443h31.367l-7.324 10.399z" clip-rule="evenodd"/>
    <path fill="#CC9B6E" fill-rule="evenodd" d="M124.783 128.391h-24.655v-.52h24.383l7.246-10.288.428.299-7.402 10.509z" clip-rule="evenodd"/>
    <path fill="#F4D19D" fill-rule="evenodd" d="M159.699 127.839h-18.834c-.325 0-.646-.075-.936-.22-.291-.144-.543-.354-.738-.612l-7.219-9.567h20.141c.495 0 .959.231 1.255.624l6.75 8.944c.058.077.093.169.102.265.009.096-.01.193-.053.279-.044.086-.111.159-.193.21-.083.051-.178.078-.275.078" clip-rule="evenodd"/>
    <path fill="#CC9B6E" fill-rule="evenodd" d="M159.244 128.423h-19.556l-7.926-10.503.418-.311 7.768 10.294h19.296v.52zm-27.535 22.266l-.032-8.199.523-.002.033 8.199-.524.002z" clip-rule="evenodd"/>
    <path fill="#CC9B6E" fill-rule="evenodd" d="M131.666 139.758l-.081-21.472.524-.002.08 21.472-.523.002z" clip-rule="evenodd"/>
    <path fill="#FFC6A0" fill-rule="evenodd" d="M155.681 131.845l-3.141-1.965.038 3.523-1.052.093c-1.697.115-3.666.23-4.831.23-1.919 0-2.717 2.264 2.249 2.655l-2.668-.597s-2.187 1.32.508 2.306c0 0-1.594 1.22.566 2.587-.589 3.513 5.294 4.069 7.185 3.599 1.893-.471 4.271-2.365 4.527-5.173.283-3.094-.898-5.447-3.38-7.258" clip-rule="evenodd"/>
    <path stroke="#DB836E" stroke-linecap="round" stroke-linejoin="round" stroke-width="1.051" d="M155.046 133.535s-6.579.471-8.434.373c-1.852-.099-1.921 2.196 2.38 2.27 3.772.15 5.499-.044 5.499-.044"/>
    <path stroke="#DB836E" stroke-linecap="round" stroke-linejoin="round" stroke-width="1.051" d="M146.445 135.841c-1.867 1.349.566 2.361.566 2.361s3.508.901 6.789.619"/>
    <path stroke="#DB836E" stroke-linecap="round" stroke-linejoin="round" stroke-width="1.051" d="M53.306 89.125c3.564-.338 8.497-1.251 13.702-7.774m86.226 60.339s-6.335.111-6.789-2.138c-.225-1.349.454-1.406.454-1.406l6.335 3.544zm-5.827-.844s-1.113 3.168 5.488 3.542l-5.488-3.542zm5.133-10.966v3.487-3.487z"/>
    <path fill="#5BA02E" fill-rule="evenodd" d="M170.058 248.583c-1.778 0-3.484-.702-4.741-1.952-1.258-1.25-1.964-2.945-1.964-4.713v-66.644c0-.875.173-1.742.51-2.55.337-.809.831-1.544 1.454-2.163.622-.618 1.362-1.109 2.175-1.444.814-.335 1.686-.508 2.566-.508.881 0 1.753.173 2.567.508.813.335 1.552.826 2.175 1.444.623.619 1.117 1.354 1.454 2.163.337.808.51 1.675.51 2.55v66.644c0 1.768-.706 3.463-1.964 4.713-1.257 1.25-2.963 1.952-4.742 1.952z" clip-rule="evenodd"/>
    <path fill="#92C110" fill-rule="evenodd" d="M178.106 247.916c-1.779 0-3.484-.702-4.741-1.952-1.258-1.25-1.964-2.945-1.964-4.712v-33.321c-.011-.882.154-1.758.486-2.576.333-.818.825-1.562 1.448-2.19.624-.627 1.367-1.126 2.186-1.466.819-.34 1.698-.515 2.585-.515.888 0 1.766.175 2.585.515s1.562.839 2.186 1.466c.624.628 1.116 1.372 1.448 2.19.332.818.497 1.694.487 2.576v33.321c0 1.767-.707 3.463-1.965 4.712-1.257 1.25-2.963 1.952-4.741 1.952z" clip-rule="evenodd"/>
    <path fill="#F2D7AD" fill-rule="evenodd" d="M188.093 294h-27.766c-.853 0-1.671-.337-2.274-.936s-.942-1.412-.942-2.26v-46.257c0-.848.339-1.661.942-2.26.603-.599 1.421-.936 2.274-.936h27.767c.853 0 1.671.337 2.274.936s.941 1.412.941 2.26v46.257c0 .848-.338 1.661-.941 2.26-.603.599-1.421.936-2.274.936" clip-rule="evenodd"/>
    <path stroke="#E4EBF7" stroke-linecap="round" stroke-linejoin="round" stroke-width="1.101" d="M89.767 89.32s7.844 5.398 16.747 2.85"/>
</svg>
