<svg width="134" height="133" viewBox="0 0 134 133" fill="none" xmlns="http://www.w3.org/2000/svg">
<mask id="mask0" mask-type="alpha" maskUnits="userSpaceOnUse" x="0" y="0" width="134" height="133">
<g style="mix-blend-mode:luminosity">
<path fill-rule="evenodd" clip-rule="evenodd" d="M0 67.0531V65.9464C0 29.5253 29.7473 0 66.4422 0H67.5578C104.253 0 134 29.5253 134 65.9464V67.0536C134 103.475 104.253 133 67.5578 133H66.4422C29.7473 133.001 0 103.475 0 67.0536" fill="#E4EBF7"/>
</g>
</mask>
<g mask="url(#mask0)">
<g style="mix-blend-mode:luminosity">
<path fill-rule="evenodd" clip-rule="evenodd" d="M-45 95.2473V93.3452C-45 30.7465 6.05873 -20 69.0426 -20H70.9574C133.941 -20 185 30.7465 185 93.3452V95.2482C185 157.847 133.941 208.593 70.9574 208.593H69.0426C6.05873 208.594 -45 157.847 -45 95.2482" fill="#E4EBF7"/>
<path fill-rule="evenodd" clip-rule="evenodd" d="M14.7272 40.6692C14.7272 40.6692 36.7493 45.8971 42.2998 56.2213C47.929 66.6967 35.886 65.2532 26.4168 61.0347C15.4512 56.1501 1.47664 49.504 14.7272 40.6692Z" fill="#FFB594"/>
<path fill-rule="evenodd" clip-rule="evenodd" d="M52.4867 32.313L52.0568 35.1848C51.3357 35.6713 47.51 32.5413 47.51 32.5413L45.9347 33.2838L44.6458 27.6414C44.6458 27.6414 51.1719 23.086 53.1848 22.6601C55.5329 22.1628 62.6499 23.5932 63.4314 24.9215C63.4314 24.9215 64.6954 25.4039 61.2987 25.6064C57.9011 25.8079 56.4695 26.0501 54.7965 28.7155C53.1235 31.3819 52.4867 32.313 52.4867 32.313Z" fill="#FFC6A0"/>
<path fill-rule="evenodd" clip-rule="evenodd" d="M89.6123 75.2958C87.0398 67.822 83.59 62.5427 80.8805 60.3192C77.4531 57.5073 71.7344 58.1662 69.7505 56.2678C68.5068 55.0766 66.6022 55.1095 66.6022 55.1095C66.6022 55.1095 51.9333 52.0538 50.1236 51.7432C47.8028 51.3465 48.0437 51.0524 44.1953 50.3837C42.6579 48.5385 41.3389 49.2981 41.3389 49.2981L34.3765 47.9599C33.5413 46.5355 32.0039 46.97 32.0039 46.97L29.5871 46.1021C27.9763 55.7549 22.0078 59.4512 22.0078 59.4512C23.7655 60.5369 37.3848 67.4824 37.3848 67.4824L42.3857 103.39C42.3857 103.39 39.1337 108.9 43.7038 112.204C43.7038 112.204 63.1739 108.583 77.8997 111.886C77.8997 111.886 80.8834 109.423 78.8515 103.365C79.3636 100.453 80.2165 95.3699 80.5514 92.1197C80.9284 92.8667 82.5285 93.9756 83.6262 95.4841C83.6262 95.4841 92.8379 88.3576 94.4488 81.9259C93.634 81.2263 92.8839 80.3923 92.2288 79.5524C91.6736 78.8402 91.8783 77.563 91.4797 76.9234C90.8246 75.8745 89.7132 75.59 89.6123 75.2958Z" fill="white"/>
<path fill-rule="evenodd" clip-rule="evenodd" d="M61.3125 237.076L74.2988 237.165C74.2988 237.165 75.5588 184.398 76.0976 174.833C76.6353 165.268 79.763 132.862 77.0702 113.734L64.8906 113.11L42.7105 113.865C42.7105 113.865 42.2892 117.704 41.5505 123.521C41.4893 124.001 40.8884 124.337 40.8234 124.842C40.7506 125.408 41.234 126.152 41.134 126.745C38.8392 140.372 34.9437 158.785 32.646 171.921C32.5334 172.566 31.4481 172.898 31.2307 174.526C31.1919 174.818 31.4355 176.002 31.3394 176.263C24.6676 194.405 20.711 222.567 17.4804 236.159L31.6598 236.145C31.6598 236.145 33.7924 227.851 35.5718 219.721C38.3005 207.249 58.0062 137.443 58.0062 137.443L60.9339 136.939L61.9464 181.799C61.9464 181.799 61.7289 182.994 62.2735 183.754C62.8171 184.514 61.7299 184.841 61.893 185.926L62.2735 187.662C62.2735 187.662 61.8376 194.61 61.4018 199.17C60.9669 203.729 61.3125 237.076 61.3125 237.076Z" fill="#7BB2F9"/>
<path d="M19.2913 233.543H31.9761M37.0367 185.168C37.0367 185.168 39.5356 184.592 43.2362 181.889L37.0367 185.168ZM47.7964 113.914C47.5391 116.94 48.0823 122.22 43.6641 122.802L47.7964 113.914ZM64.565 112.205C64.565 112.205 64.6698 125.857 63.3327 126.883C61.2179 128.504 60.4832 128.777 60.4832 128.777L64.565 112.205ZM60.9101 112.748C60.9101 112.748 60.9435 125.297 59.7703 136.499L60.9101 112.748ZM55.0804 137.567C55.0804 137.567 61.9537 135.946 64.0685 135.946L55.0804 137.567ZM36.6269 166.748C36.3319 168.232 36.0208 169.713 35.6939 171.19C35.6939 171.19 34.3044 172.975 34.7323 174.869C35.1602 176.763 33.8298 176.862 29.9815 189.83C28.3651 195.276 25.7023 207.943 23.9316 216.718L23.7115 217.809L36.6269 166.748ZM37.9412 158.9C37.6723 160.447 37.3921 161.991 37.1006 163.532L37.9412 158.9ZM44.519 114.497L43.3791 124.695C43.3791 124.695 42.3337 124.842 42.9026 126.882C43.0103 128.193 40.3542 142.251 37.9659 156.53L44.519 114.497Z" stroke="#648BD8" stroke-width="1.051" stroke-linecap="round" stroke-linejoin="round"/>
<path fill-rule="evenodd" clip-rule="evenodd" d="M77.2433 110.966C77.2433 110.966 60.4726 107.497 41.932 111.189C42.0875 113.999 41.9291 115.827 41.9291 115.827C41.9291 115.827 56.378 112.678 77.021 115.478C77.2689 112.846 77.2433 110.966 77.2433 110.966Z" fill="#192064"/>
<path fill-rule="evenodd" clip-rule="evenodd" d="M68.1861 114.032L68.189 108.654C68.1904 108.424 68.113 108.202 67.9732 108.035C67.8335 107.868 67.6422 107.77 67.44 107.761C65.091 107.662 62.563 107.643 59.8963 107.746C59.6928 107.754 59.5001 107.852 59.3584 108.018C59.2168 108.184 59.1374 108.407 59.1367 108.638L59.1339 114.012C59.1334 114.13 59.154 114.248 59.1942 114.357C59.2345 114.467 59.2937 114.566 59.3683 114.649C59.4429 114.732 59.5314 114.797 59.6286 114.841C59.7257 114.884 59.8295 114.905 59.9339 114.902C62.2299 114.836 64.7213 114.832 67.3755 114.921C67.4803 114.925 67.5847 114.905 67.6826 114.862C67.7805 114.819 67.8699 114.754 67.9454 114.672C68.021 114.589 68.0812 114.49 68.1226 114.38C68.1639 114.271 68.1855 114.153 68.1861 114.033" fill="white"/>
<path fill-rule="evenodd" clip-rule="evenodd" d="M67.2815 112.452L67.2835 109.297C67.2847 109.126 67.2195 108.961 67.1018 108.837C66.9842 108.713 66.8232 108.641 66.6533 108.635C64.6631 108.569 62.6713 108.565 60.6809 108.624C60.5094 108.63 60.3467 108.702 60.2271 108.826C60.1074 108.949 60.0402 109.115 60.0394 109.288V112.438C60.0389 112.526 60.0558 112.613 60.0892 112.694C60.1226 112.775 60.1718 112.849 60.2338 112.91C60.2959 112.972 60.3696 113.02 60.4506 113.053C60.5316 113.085 60.6182 113.101 60.7053 113.099C62.6715 113.055 64.6384 113.059 66.6044 113.11C66.973 113.12 67.2815 112.823 67.2815 112.452Z" fill="#192064"/>
<path fill-rule="evenodd" clip-rule="evenodd" d="M10.2432 47.4846C10.2432 47.4846 9.74026 53.1368 17.2829 52.6758C28.1988 52.0101 26.2671 43.9381 48.0228 32.4281C47.2567 29.8961 45.6379 27.9924 45.6379 27.9924C45.6379 27.9924 34.8507 30.9003 23.6268 35.5155C17.0325 38.227 10.5716 41.4547 10.2432 47.4846ZM66.3663 54.6188L67.2835 49.5959L58.6248 38.9087L53.7156 43.9316L52.0198 51.2565C52.0066 51.3108 52.0095 51.3676 52.028 51.4204C52.0466 51.4733 52.0802 51.5201 52.125 51.5557C53.0655 52.3037 58.4601 56.2429 66.108 54.8694C66.1723 54.8575 66.2313 54.8272 66.2773 54.7824C66.3232 54.7377 66.3539 54.6806 66.3653 54.6188" fill="#FFC6A0"/>
<path fill-rule="evenodd" clip-rule="evenodd" d="M55.701 44.0117C55.701 44.0117 51.2924 41.2057 53.3357 37.2696C54.9142 34.2305 57.7248 38.3839 57.7248 38.3839C57.7248 38.3839 58.2306 34.8019 60.7602 34.8019C61.2659 33.779 62.2783 30.7084 62.2783 30.7084C62.2783 30.7084 73.4091 33.2666 75.433 33.778C75.433 38.8953 73.1923 52.8821 67.8082 53.3119C59.1603 54.0034 55.701 44.0117 55.701 44.0117Z" fill="#FFC6A0"/>
<path fill-rule="evenodd" clip-rule="evenodd" d="M74.7932 39.1318C77.309 37.1074 78.1495 29.6741 78.1495 29.6741C78.1495 29.6741 75.7517 29.1975 71.727 27.6799C67.1974 25.6555 59.3481 23.0619 54.8195 28.6293C45.4681 31.7647 52.8366 47.9134 52.8366 47.9134L55.4608 44.9745C55.4608 44.9745 51.6546 41.7769 53.4489 38.9013C55.5478 35.5334 57.2405 39.9451 57.2405 39.9451C57.2405 39.9451 57.8566 37.623 60.7042 36.6939C61.0476 36.0033 61.7063 34.0926 62.0893 32.9486C62.1714 32.7019 62.3422 32.4948 62.5682 32.3682C62.7942 32.2415 63.0591 32.2042 63.311 32.2638C65.6324 32.8066 71.7038 34.2279 74.295 34.8534C74.8 34.975 75.1375 35.4517 75.0882 35.9721L74.7932 39.1318Z" fill="#520038"/>
<path fill-rule="evenodd" clip-rule="evenodd" d="M66.3732 40.9498C66.2691 41.5222 65.7851 41.9238 65.2921 41.8469C64.798 41.769 64.4827 41.2426 64.5868 40.6702C64.6909 40.0978 65.1749 39.6962 65.6679 39.7732C66.161 39.8501 66.4762 40.3775 66.3732 40.9498ZM73.6026 42.4793C73.4985 43.0517 73.0145 43.4533 72.5214 43.3763C72.0284 43.2985 71.7131 42.7721 71.8162 42.1997C71.9202 41.6273 72.4042 41.2257 72.8973 41.3026C73.3904 41.3796 73.7056 41.906 73.6026 42.4793Z" fill="#552950"/>
<path d="M71.811 39.7637L70.8626 41.2297L70.5472 45.1968H68.189" stroke="#DB836E" stroke-width="1.118" stroke-linecap="round" stroke-linejoin="round"/>
<path d="M72.7165 39.7637C72.7165 39.7637 74.6569 39.7637 75.433 39.7637" stroke="#5C2552" stroke-width="1.118" stroke-linecap="round" stroke-linejoin="round"/>
<path d="M54.6063 39.4397C54.6063 39.4397 54.8236 38.6318 55.1134 38.9205C55.4037 39.2091 55.694 39.9597 55.3677 40.3636C55.041 40.7668 55.4402 41.5747 55.4402 41.5747" stroke="#DB836E" stroke-width="1.118" stroke-linecap="round" stroke-linejoin="round"/>
<path d="M64.567 37.0472C64.567 37.0472 66.5697 39.1262 69.0945 38.8292" stroke="#5C2552" stroke-width="1.118" stroke-linecap="round" stroke-linejoin="round"/>
<path d="M57.3228 46.1021C57.3228 46.1021 59.3551 53.1195 66.502 53.3461M65.241 46.6303C65.241 46.6303 67.202 47.7616 69.0944 47.7616L65.241 46.6303ZM66.0819 49.0446C66.0819 49.0446 66.922 49.4221 67.4125 49.3462L66.0819 49.0446Z" stroke="#DB836E" stroke-width="1.118" stroke-linecap="round" stroke-linejoin="round"/>
<path d="M31.7284 47.9135C31.7284 47.9135 31.0285 56.5264 23.819 61.0955M43.7313 54.1584C43.7313 54.1584 44.1652 59.3983 38.9735 66.0237L43.7313 54.1584Z" stroke="#E4EBF7" stroke-width="1.101" stroke-linecap="round" stroke-linejoin="round"/>
<path d="M90.8267 85.9447C90.8267 85.9447 85.2533 92.7926 80.8661 95.9053" stroke="#E4EBF7" stroke-width="1.051" stroke-linecap="round" stroke-linejoin="round"/>
<path d="M80.8279 71.4565C80.8279 71.4565 81.397 75.649 78.1497 102.244" stroke="#E4EBF7" stroke-width="1.101" stroke-linecap="round" stroke-linejoin="round"/>
<path fill-rule="evenodd" clip-rule="evenodd" d="M110.683 113.11H62.8203C62.5631 113.11 62.3164 113.01 62.1344 112.832C61.9525 112.654 61.8503 112.413 61.8503 112.161V82.367C61.8503 81.8433 62.2844 81.4174 62.8203 81.4174H110.683C111.219 81.4174 111.653 81.8433 111.653 82.367V112.161C111.653 112.413 111.551 112.654 111.369 112.832C111.187 113.01 110.941 113.11 110.683 113.11Z" fill="#F2D7AD"/>
<path fill-rule="evenodd" clip-rule="evenodd" d="M110.731 113.11H90.8268V81.4174H111.654V112.244C111.654 112.474 111.556 112.694 111.384 112.856C111.211 113.018 110.976 113.109 110.732 113.109" fill="#F4D19D"/>
<path fill-rule="evenodd" clip-rule="evenodd" d="M84.7161 90.4725H55.1081C55.0163 90.4727 54.9263 90.4501 54.8477 90.4072C54.7692 90.3643 54.7053 90.3027 54.6629 90.2291C54.6205 90.1556 54.6013 90.0729 54.6074 89.9902C54.6135 89.9075 54.6446 89.8278 54.6974 89.76L60.8631 81.8033C61.0496 81.5614 61.356 81.4174 61.6846 81.4174H91.7322L84.7161 90.4725Z" fill="#F2D7AD"/>
<path fill-rule="evenodd" clip-rule="evenodd" d="M84.8326 91.378H61.8503V90.8984H84.5787L91.3335 81.4174L91.7322 81.6927L84.8326 91.378Z" fill="#CC9B6E"/>
<path fill-rule="evenodd" clip-rule="evenodd" d="M118.395 90.4716H100.284C99.9713 90.4716 99.6633 90.4061 99.3839 90.2803C99.1046 90.1546 98.8616 89.972 98.6743 89.747L91.7322 81.4174H111.1C111.576 81.4174 112.022 81.6182 112.307 81.9604L118.797 89.7479C118.853 89.8152 118.887 89.8952 118.896 89.9789C118.904 90.0626 118.886 90.1468 118.844 90.222C118.803 90.2972 118.738 90.3605 118.659 90.4047C118.58 90.4489 118.488 90.4724 118.395 90.4725" fill="#F4D19D"/>
<path fill-rule="evenodd" clip-rule="evenodd" d="M117.992 91.778H98.7214L90.9103 81.7152L91.3229 81.4174L98.9779 91.2794H117.992V91.778ZM90.8586 113.11L90.8268 105.255L91.3427 105.253L91.3746 113.108L90.8586 113.11Z" fill="#CC9B6E"/>
<path fill-rule="evenodd" clip-rule="evenodd" d="M90.9477 103.15L90.8268 81.4194L91.6114 81.4174L91.7323 103.148L90.9477 103.15Z" fill="#CC9B6E"/>
<path fill-rule="evenodd" clip-rule="evenodd" d="M114.647 95.1472L111.576 93.189L111.614 96.6999L110.585 96.7918C108.927 96.9067 107.002 97.0216 105.863 97.0216C103.987 97.0216 103.207 99.2776 108.062 99.6673L105.453 99.0718C105.453 99.0718 103.315 100.388 105.95 101.37C105.95 101.37 104.392 102.586 106.504 103.948C105.928 107.448 111.678 108.002 113.527 107.534C115.377 107.065 117.702 105.177 117.952 102.379C118.228 99.2966 117.074 96.9517 114.648 95.1472" fill="#FFC6A0"/>
<path d="M113.465 95.9055C113.465 95.9055 107.281 96.5377 105.538 96.4059C103.798 96.2741 103.733 99.3515 107.775 99.451C111.32 99.6528 112.943 99.3919 112.943 99.3919" stroke="#DB836E" stroke-width="1.051" stroke-linecap="round" stroke-linejoin="round"/>
<path d="M105.122 98.6221C103.235 100.233 105.694 101.441 105.694 101.441C105.694 101.441 109.242 102.515 112.559 102.179" stroke="#DB836E" stroke-width="1.051" stroke-linecap="round" stroke-linejoin="round"/>
<path d="M16.5748 53.6964C19.9984 53.3664 24.737 52.4741 29.7362 46.1021M112.559 105.041C112.559 105.041 106.474 105.15 106.038 102.953C105.821 101.635 106.474 101.58 106.474 101.58L112.559 105.041ZM106.962 104.217C106.962 104.217 105.893 107.312 112.233 107.677L106.962 104.217ZM111.892 93.5057V96.9111V93.5057Z" stroke="#DB836E" stroke-width="1.051" stroke-linecap="round" stroke-linejoin="round"/>
<path d="M50.9843 54.252C50.9843 54.252 58.6194 59.786 67.2835 57.1731" stroke="#E4EBF7" stroke-width="1.101" stroke-linecap="round" stroke-linejoin="round"/>
</g>
</g>
</svg>
